<mxfile host="app.diagrams.net" modified="2024-06-14T09:31:01.598Z" agent="Mozilla/5.0 (Windows NT 10.0; Win64; x64) AppleWebKit/537.36 (KHTML, like Gecko) Chrome/125.0.0.0 Safari/537.36" version="23.1.4" etag="-fjk29MfYePjQKdeJho4" type="github">
  <diagram name="Seite-1" id="2veeThv5wTnaOtCWkvnE">
    <mxGraphModel>
      <root>
        <mxCell id="0" />
        <mxCell id="1" parent="0" />
      </root>
    </mxGraphModel>
  </diagram>
</mxfile>
